<svg xmlns:xlink="http://www.w3.org/1999/xlink" xmlns="http://www.w3.org/2000/svg" id="ele_2" width="499" height="352" class="svg-svg svg"><path id="parana" d="M405,161.5h1l1-1l4-5l-1-4l-6-3l-3-13l-11-10l-3-7l-4-5l1-8l2-5l-5-6v-6l-1-4v-1v-1l2-8l-3-3l-3-12 l-5-6l-1-3l-7-3l-6-1v-2l3-2l-6-11l-17,7l-10-2l-4-2h-5v3h-6l-7-4l-2,2l-3-2l-7,5l-3-6l-6-8l-12-1h-1l1-1l-12-4l-7-5l-12-1l-9,3 l-8-3h-6l-1-3h-3l-6,2l-16-9l-3-1l-4,12l-3-4l-3,2h-8l2-2l-1-1h-2l-3,3l-15-6l-9,6l-6-2l-15-3l-12,5l-2,3l-2,5l-25,10l-8,7l-1,8 l-6,18l-1,4l-3,3l-1,1l-5,1l-8,5l-3,9l-3,15l-3,12l-1,4l-7,7l-7,8l-2,3l-3,5l2,10l3,6l-5,19l2,5l-6,16l-1,10l-1,7l-1,1v5l3,5l-3,3 l-4,9l-4,5l-2,10l15,18l1-4l2,1l-1-6l3,1l6-5v5h4l4-3l-2-2l3-1l4,7l1-1v-3l6,1l1,2l2,4l2-4l5,4l4,11l-2,4l1,4l-1,3l6,9l3,1v5l4,5 l4,6l10,4l11-5l20,12l9-4l5,1l2-1h6h9l6,6l3-2l6,4l8-2l19,4l1,4l9,4l7,3l6-3h10l5,2h5h1l8,11l3-2l-2-2l9-3l4-3l1-4l-4-9l2-10l17-7 l10,4v-4l8-1l2,1l2-1l7-12l13-2h3l4,6l5,2l2-9l4,1l1,2l3-3l10-2l4,5l3-5l13,9l2,3l12,6l4-2l2-3l10-1l6-7l6-5l3,2l3-2l8-1l2-2l1,1 l2-2l3,1h24l-3-2l12-24l-1,6l4-9l4-2l5-4l-2,1v-6l2,2l3-3h6l-3-2l6-6l3-3l-2-1v-1h3l6-7l-3-1l-3,1l-4-2l2,2l-2,1l-3-5v-3l-4-12l2-8 l-8-6h-4l-1,3l2,1l-9,8l-5,10l-1-2l-2-6l3-5l1-6l-1-3l5-8v-4l-8-2l-13,2l-2-3h-3l-8,2l-4-5h-3l-4,5l-6-2l-6,3l-5-7l3-5v-3h-2l3-3 l1-4" class="svg-path path st5" stroke="#6D87AB" fill="#FFFFFF" stroke-width="3px"></path><g id="ele_4" class="svg-g g"><polygon id="maringa" points="180,92.5 180,96.5 182,96.5 194,106.5 195,109.5 201,106.5 204,103.5 203,103.5 202,100.5 214,91.5 226,88.5 226,85.5 228,81.5 226,76.5 223,73.5 227,68.5 226,65.5 225,57.5 227,51.5 223,50.5 214,46.5 214,44.5 210,43.5 210,41.5 213,41.5 216,36.5 218,32.5 214,30.5 215,20.5 217,16.5 218,13.5 218,12.5 217,9.5 214,9.5 208,11.5 208,14.5 206,23.5 204,22.5 201,25.5 195,15.5 190,25.5 191,31.5 190,32.5 195,44.5 185,51.5 188,56.5 184,63.5 181,62.5 175,65.5 165,67.5 165,78.5 165,80.5 168,86.5 165,87.5 171,88.5 172,87.5 173,87.5 175,86.5 176,89.5 176,90.5 175,92.5 " class="svg-polygon polygon st2" stroke="#708BB0" fill="#65BFFE"></polygon><polygon id="uniao-da-vitoria" points="216,289.5 222,296.5 220,299.5 219,304.5 216,309.5 216,311.5 218,311.5 222,309.5 227,311.5 231,312.5 229,315.5 232,320.5 232,323.5 235,329.5 234,333.5 234,337.5 234,339.5 235,339.5 243,350.5 246,348.5 244,346.5 253,343.5 257,340.5 258,336.5 254,327.5 256,317.5 273,310.5 283,314.5 283,310.5 291,309.5 293,310.5 295,309.5 302,297.5 315,295.5 318,295.5 322,301.5 327,303.5 329,294.5 333,295.5 334,297.5 337,294.5 347,292.5 348,291.5 351,288.5 352,285.5 347,282.5 344,279.5 339,281.5 335,278.5 335,276.5 333,273.5 330,275.5 325,269.5 313,266.5 314,265.5 305,270.5 303,273.5 300,273.5 300,277.5 303,278.5 298,279.5 298,282.5 295,287.5 284,287.5 281,289.5 281,291.5 280,290.5 278,287.5 278,283.5 275,281.5 274,276.5 272,273.5 276,267.5 278,268.5 278,263.5 277,261.5 272,261.5 271,263.5 267,263.5 263,265.5 263,268.5 261,267.5 259,269.5 256,270.5 250,272.5 250,273.5 244,282.5 241,283.5 238,282.5 226,289.5 223,289.5 223,282.5 221,281.5 217,289.5 " class="svg-polygon polygon st1" stroke="#708BB0" fill="#02A8FE"></polygon><polygon id="pato-branco" points="132,320.5 134,319.5 140,319.5 149,319.5 155,325.5 158,323.5 164,327.5 172,325.5 191,329.5 192,333.5 201,337.5 208,340.5 214,337.5 224,337.5 229,339.5 234,339.5 234,337.5 234,333.5 235,329.5 232,323.5 232,320.5 229,315.5 231,312.5 227,311.5 222,309.5 218,311.5 216,311.5 216,309.5 219,304.5 220,299.5 222,296.5 216,289.5 211,289.5 207,291.5 203,289.5 198,289.5 197,286.5 192,283.5 187,275.5 190,272.5 173,264.5 168,266.5 167,263.5 164,263.5 160,263.5 153,259.5 151,260.5 153,261.5 153,264.5 146,260.5 141,255.5 138,258.5 134,259.5 134,260.5 137,269.5 128,270.5 130,273.5 133,274.5 133,278.5 136,280.5 136,282.5 133,285.5 126,286.5 127,288.5 129,290.5 130,291.5 129,295.5 130,298.5 134,300.5 138,303.5 138,305.5 134,307.5 134,312.5 130,309.5 130,312.5 132,317.5 " class="svg-polygon polygon st4" stroke="#708BB0" fill="#99E6FF"></polygon><polygon id="francisco-beltrao" points="49,260.5 51,264.5 53,260.5 58,264.5 62,275.5 60,279.5 61,283.5 60,286.5 66,295.5 69,296.5 69,301.5 73,306.5 77,312.5 87,316.5 98,311.5 118,323.5 127,319.5 132,320.5 132,317.5 130,312.5 130,309.5 134,312.5 134,307.5 138,305.5 138,303.5 134,300.5 130,298.5 129,295.5 130,291.5 129,290.5 127,288.5 126,286.5 133,285.5 136,282.5 136,280.5 133,278.5 133,274.5 130,273.5 128,270.5 127,270.5 116,280.5 112,272.5 110,280.5 107,285.5 106,288.5 99,287.5 96,274.5 97,272.5 93,260.5 86,255.5 87,255.5 81,252.5 80,255.5 78,255.5 76,252.5 73,252.5 72,253.5 73,258.5 67,255.5 67,261.5 62,261.5 62,256.5 64,252.5 62,250.5 61,252.5 57,257.5 53,256.5 " class="svg-polygon polygon st3" stroke="#708BB0" fill="#33CCFF"></polygon><polygon id="toledo" points="31,123.5 24,131.5 22,134.5 19,139.5 21,149.5 24,155.5 19,174.5 21,179.5 15,195.5 14,205.5 13,212.5 42,212.5 48,216.5 50,213.5 44,204.5 44,202.5 53,202.5 52,206.5 54,208.5 68,206.5 75,202.5 73,197.5 70,193.5 68,190.5 79,192.5 81,192.5 79,189.5 81,187.5 79,184.5 74,177.5 68,174.5 70,164.5 72,158.5 70,156.5 69,152.5 70,149.5 71,149.5 70,146.5 68,146.5 68,143.5 69,142.5 65,139.5 57,141.5 51,136.5 48,137.5 48,130.5 49,129.5 49,127.5 46,125.5 40,130.5 38,127.5 32,124.5 " class="svg-polygon polygon st3" stroke="#708BB0" fill="#33CCFF"></polygon><polygon id="loanda" points="137,9.5 122,6.5 110,11.5 108,14.5 106,19.5 81,29.5 73,36.5 72,44.5 66,62.5 65,66.5 62,69.5 68,69.5 74,62.5 76,65.5 79,65.5 78,62.5 80,59.5 86,64.5 88,62.5 96,62.5 97,60.5 106,65.5 110,62.5 112,65.5 117,63.5 118,61.5 121,61.5 124,60.5 126,60.5 128,58.5 127,56.5 128,47.5 129,49.5 135,49.5 134,47.5 137,43.5 131,40.5 133,21.5 134,23.5 137,10.5 " class="svg-polygon polygon st1" stroke="#708BB0" fill="#02A8FE"></polygon><polygon id="londrina" points="272,23.5 271,23.5 272,22.5 260,18.5 253,13.5 241,12.5 232,15.5 224,12.5 218,12.5 218,13.5 217,16.5 215,20.5 214,30.5 218,32.5 216,36.5 213,41.5 210,41.5 210,43.5 214,44.5 214,46.5 223,50.5 227,51.5 225,57.5 226,65.5 227,68.5 232,65.5 238,73.5 244,73.5 247,76.5 256,90.5 257,93.5 254,98.5 254,106.5 258,106.5 259,107.5 258,118.5 261,120.5 264,116.5 269,113.5 272,115.5 278,107.5 281,105.5 280,102.5 282,98.5 278,94.5 276,81.5 278,78.5 272,75.5 276,67.5 275,51.5 275,45.5 278,45.5 277,40.5 275,39.5 275,37.5 279,32.5 272,24.5 " class="svg-polygon polygon st0" stroke="#708BB0" fill="#68CFFE"></polygon><polygon id="cornelio-procopio" points="327,36.5 323,34.5 318,34.5 318,37.5 312,37.5 305,33.5 303,35.5 300,33.5 293,38.5 290,32.5 284,24.5 272,23.5 272,24.5 279,32.5 275,37.5 275,39.5 277,40.5 278,45.5 275,45.5 275,51.5 276,67.5 272,75.5 278,78.5 276,81.5 278,94.5 282,98.5 280,102.5 281,105.5 281,106.5 284,113.5 292,115.5 289,111.5 293,109.5 295,110.5 301,108.5 303,99.5 306,101.5 309,105.5 312,105.5 311,102.5 315,102.5 318,104.5 317,93.5 320,95.5 321,91.5 320,90.5 318,82.5 314,68.5 315,65.5 334,57.5 327,47.5 323,48.5 324,41.5 " class="svg-polygon polygon st3" stroke="#708BB0" fill="#33CCFF"></polygon><polygon id="wenceslau-braz" points="406,161.5 407,160.5 411,155.5 410,151.5 404,148.5 401,135.5 390,125.5 387,118.5 383,113.5 384,105.5 386,100.5 381,94.5 381,88.5 380,84.5 379,84.5 378,84.5 375,86.5 374,87.5 376,89.5 373,91.5 368,91.5 364,90.5 363,93.5 367,96.5 370,102.5 366,101.5 363,103.5 361,107.5 361,110.5 356,109.5 352,112.5 351,119.5 346,122.5 338,119.5 333,123.5 335,128.5 338,126.5 343,131.5 342,135.5 340,136.5 338,135.5 332,139.5 335,140.5 335,143.5 340,149.5 350,146.5 353,156.5 360,157.5 365,164.5 369,162.5 376,168.5 379,176.5 378,176.5 382,176.5 384,174.5 387,174.5 391,169.5 394,169.5 397,166.5 402,165.5 401,162.5 405,161.5 " class="svg-polygon polygon st1" stroke="#708BB0" fill="#02A8FE"></polygon><polygon id="ibaiti" points="315,102.5 316,102.5 317,105.5 317,110.5 314,112.5 315,120.5 317,120.5 320,118.5 320,112.5 323,112.5 329,118.5 332,119.5 335,122.5 338,119.5 346,122.5 351,119.5 352,112.5 356,109.5 361,110.5 361,107.5 363,103.5 366,101.5 370,102.5 367,96.5 363,93.5 364,90.5 368,91.5 373,91.5 376,89.5 374,87.5 363,88.5 355,91.5 348,89.5 351,84.5 348,78.5 343,75.5 337,77.5 336,79.5 339,83.5 335,88.5 337,89.5 335,91.5 329,93.5 326,90.5 322,91.5 321,91.5 320,95.5 317,93.5 318,104.5 " class="svg-polygon polygon st4" stroke="#708BB0" fill="#99E6FF"></polygon><polygon id="telemaco-borba" points="247,138.5 251,140.5 254,142.5 257,142.5 257,144.5 263,145.5 267,154.5 266,160.5 261,165.5 259,170.5 262,170.5 262,173.5 264,176.5 268,177.5 268,181.5 269,191.5 272,196.5 276,197.5 277,196.5 293,183.5 292,180.5 294,178.5 301,160.5 303,159.5 313,165.5 325,156.5 334,162.5 339,151.5 340,149.5 335,143.5 335,140.5 332,139.5 338,135.5 340,136.5 342,135.5 343,131.5 338,126.5 335,128.5 333,123.5 335,122.5 332,119.5 329,118.5 323,112.5 320,112.5 320,118.5 317,120.5 315,120.5 314,112.5 317,110.5 317,105.5 316,102.5 315,102.5 311,102.5 312,105.5 309,105.5 306,101.5 303,99.5 301,108.5 295,110.5 293,109.5 289,111.5 292,115.5 284,113.5 281,106.5 278,107.5 272,115.5 269,113.5 264,116.5 261,120.5 265,124.5 263,128.5 260,130.5 253,130.5 246,135.5 249,138.5 " class="svg-polygon polygon st6" stroke="#708BB0" fill="#33E4FF"></polygon><polygon id="irati" points="314,265.5 318,253.5 322,251.5 323,247.5 326,238.5 327,237.5 328,234.5 329,225.5 328,217.5 321,215.5 315,224.5 311,222.5 305,226.5 305,233.5 302,239.5 295,235.5 290,236.5 289,233.5 293,224.5 295,223.5 286,216.5 283,212.5 277,210.5 274,206.5 270,205.5 269,201.5 263,199.5 265,195.5 257,189.5 255,190.5 247,192.5 243,198.5 247,201.5 252,212.5 254,209.5 255,212.5 255,215.5 261,224.5 258,232.5 264,243.5 265,242.5 267,242.5 267,245.5 265,246.5 266,247.5 266,250.5 262,246.5 248,244.5 246,245.5 254,252.5 253,260.5 244,260.5 247,268.5 250,272.5 256,270.5 259,269.5 261,267.5 263,268.5 263,265.5 267,263.5 271,263.5 272,261.5 277,261.5 278,263.5 278,268.5 276,267.5 272,273.5 274,276.5 275,281.5 278,283.5 278,287.5 280,290.5 281,291.5 281,289.5 284,287.5 295,287.5 298,282.5 298,279.5 303,278.5 300,277.5 300,273.5 303,273.5 305,270.5 " class="svg-polygon polygon st4" stroke="#708BB0" fill="#99E6FF"></polygon><polygon id="cascavel" points="87,255.5 92,254.5 92,251.5 101,254.5 104,257.5 110,257.5 110,252.5 111,251.5 112,254.5 114,254.5 113,247.5 117,241.5 117,236.5 123,236.5 126,232.5 129,232.5 136,228.5 143,226.5 148,226.5 149,223.5 146,223.5 148,216.5 145,214.5 140,209.5 139,202.5 141,197.5 142,194.5 139,194.5 139,192.5 134,191.5 134,187.5 133,186.5 129,188.5 125,182.5 126,182.5 125,181.5 118,176.5 110,170.5 106,171.5 103,178.5 100,176.5 95,175.5 94,180.5 91,180.5 88,188.5 81,188.5 79,189.5 81,192.5 79,192.5 68,190.5 70,193.5 73,197.5 75,202.5 68,206.5 54,208.5 52,206.5 53,202.5 44,202.5 44,204.5 50,213.5 48,216.5 50,224.5 53,227.5 54,232.5 60,236.5 62,246.5 62,250.5 64,252.5 62,256.5 62,261.5 67,261.5 67,255.5 73,258.5 72,253.5 73,252.5 76,252.5 78,255.5 80,255.5 81,252.5 " class="svg-polygon polygon st1" stroke="#708BB0" fill="#02A8FE"></polygon><polygon id="assis-chateaubriand" points="106,171.5 110,170.5 111,160.5 109,155.5 101,155.5 100,151.5 103,142.5 100,142.5 96,141.5 94,146.5 87,142.5 90,136.5 81,130.5 70,142.5 66,139.5 69,142.5 68,143.5 68,146.5 70,146.5 71,149.5 70,149.5 69,152.5 70,156.5 72,158.5 70,164.5 68,174.5 74,177.5 79,184.5 81,187.5 81,188.5 88,188.5 91,180.5 94,180.5 95,175.5 100,176.5 103,178.5 " class="svg-polygon polygon st0" stroke="#708BB0" fill="#68CFFE"></polygon><polygon id="cianorte" points="117,63.5 119,62.5 117,68.5 117,81.5 116,86.5 118,94.5 119,100.5 122,106.5 119,114.5 121,120.5 124,121.5 134,125.5 139,125.5 141,127.5 145,121.5 149,122.5 155,107.5 161,113.5 180,96.5 180,92.5 175,92.5 176,89.5 175,86.5 171,88.5 165,87.5 168,86.5 164,79.5 162,79.5 161,74.5 153,68.5 140,65.5 136,62.5 132,64.5 128,64.5 128,60.5 128,58.5 126,60.5 124,60.5 121,61.5 118,61.5 " class="svg-polygon polygon st1" stroke="#708BB0" fill="#02A8FE"></polygon><polygon id="goioere" points="110,170.5 118,176.5 125,181.5 126,182.5 127,177.5 130,173.5 131,169.5 136,167.5 139,169.5 141,169.5 141,165.5 143,158.5 146,150.5 149,150.5 151,145.5 140,129.5 141,127.5 139,125.5 134,125.5 124,121.5 121,120.5 110,118.5 103,121.5 96,133.5 96,141.5 100,142.5 103,142.5 100,151.5 101,155.5 109,155.5 111,160.5 " class="svg-polygon polygon st6" stroke="#708BB0" fill="#33E4FF"></polygon><polygon id="laranjeiras-do-sul" points="167,263.5 168,265.5 167,263.5 168,261.5 181,251.5 185,245.5 194,239.5 197,238.5 197,235.5 199,232.5 193,226.5 192,217.5 188,207.5 187,206.5 183,204.5 175,206.5 171,207.5 170,211.5 165,211.5 161,209.5 159,211.5 155,208.5 156,205.5 153,201.5 150,201.5 149,198.5 142,194.5 141,197.5 139,202.5 140,209.5 145,214.5 148,216.5 146,223.5 149,223.5 148,226.5 143,226.5 136,228.5 129,232.5 126,232.5 123,236.5 117,236.5 117,241.5 113,247.5 114,254.5 115,254.5 116,253.5 124,257.5 128,255.5 134,259.5 138,258.5 141,255.5 146,260.5 153,264.5 153,261.5 151,260.5 153,259.5 160,263.5 164,263.5 " class="svg-polygon polygon st0" stroke="#708BB0" fill="#68CFFE"></polygon><polygon id="pitanga" points="155,196.5 149,198.5 150,201.5 153,201.5 156,205.5 155,208.5 159,211.5 161,209.5 165,211.5 170,211.5 171,207.5 175,206.5 183,204.5 187,206.5 185,204.5 189,204.5 199,207.5 200,210.5 204,212.5 208,209.5 206,207.5 209,206.5 223,212.5 226,206.5 232,205.5 241,196.5 238,193.5 243,189.5 240,184.5 239,178.5 236,178.5 236,175.5 240,175.5 238,170.5 234,171.5 231,170.5 224,171.5 222,171.5 222,175.5 216,175.5 216,172.5 213,163.5 208,162.5 206,157.5 201,145.5 197,142.5 199,145.5 198,150.5 194,156.5 195,157.5 197,164.5 188,174.5 189,176.5 186,177.5 182,175.5 181,177.5 177,176.5 156,186.5 156,192.5 " class="svg-polygon polygon st6" stroke="#708BB0" fill="#33E4FF"></polygon><polygon id="ivaipora" points="243,189.5 249,189.5 255,189.5 255,190.5 257,189.5 265,195.5 263,199.5 269,201.5 270,205.5 274,206.5 273,205.5 276,199.5 276,197.5 272,196.5 269,191.5 268,181.5 268,177.5 264,176.5 262,173.5 262,170.5 259,170.5 261,165.5 266,160.5 267,154.5 263,145.5 257,144.5 257,142.5 254,142.5 251,140.5 247,138.5 244,139.5 238,133.5 223,123.5 222,121.5 214,118.5 217,112.5 212,106.5 208,107.5 204,103.5 201,106.5 195,109.5 201,118.5 200,121.5 201,124.5 200,129.5 202,135.5 200,136.5 197,141.5 197,142.5 201,145.5 206,157.5 208,162.5 213,163.5 216,172.5 216,175.5 222,175.5 222,171.5 224,171.5 231,170.5 234,171.5 238,170.5 240,175.5 236,175.5 236,178.5 239,178.5 240,184.5 " class="svg-polygon polygon st1" stroke="#708BB0" fill="#02A8FE"></polygon><polygon id="apucarana" points="238,73.5 244,73.5 247,76.5 256,90.5 257,93.5 254,98.5 254,106.5 258,106.5 259,107.5 258,118.5 265,124.5 263,128.5 260,130.5 253,130.5 246,135.5 249,138.5 244,139.5 238,133.5 223,123.5 222,121.5 214,118.5 217,112.5 212,106.5 208,107.5 203,103.5 202,100.5 214,91.5 226,88.5 226,85.5 228,81.5 226,76.5 223,73.5 227,68.5 232,65.5 " class="svg-polygon polygon st4" stroke="#708BB0" fill="#99E6FF"></polygon><polygon id="curitiba" points="409,239.5 406,236.5 395,242.5 395,245.5 397,248.5 397,260.5 403,257.5 405,255.5 406,253.5 409,242.5 " class="svg-polygon polygon st1" stroke="#708BB0" fill="#02A8FE"></polygon><polygon id="ponta-grossa" points="353,156.5 350,146.5 340,149.5 339,151.5 334,162.5 325,156.5 313,165.5 303,159.5 301,160.5 294,178.5 292,180.5 293,183.5 277,196.5 276,199.5 273,205.5 277,210.5 283,212.5 286,216.5 295,223.5 293,224.5 289,233.5 290,236.5 295,235.5 302,239.5 305,233.5 305,226.5 311,222.5 315,224.5 321,215.5 328,217.5 329,225.5 328,234.5 327,237.5 326,238.5 323,247.5 322,251.5 318,253.5 313,266.5 325,269.5 330,275.5 333,273.5 338,263.5 344,260.5 348,256.5 354,256.5 362,251.5 368,239.5 361,227.5 369,223.5 369,216.5 369,212.5 378,206.5 385,198.5 381,190.5 383,186.5 375,183.5 375,178.5 379,176.5 376,168.5 369,162.5 365,164.5 360,157.5 " class="svg-polygon polygon st3" stroke="#708BB0" fill="#33CCFF"></polygon><polygon id="guarapuava" points="255,189.5 243,189.5 238,193.5 241,196.5 232,205.5 226,206.5 223,212.5 209,206.5 206,207.5 208,209.5 204,212.5 200,210.5 199,207.5 189,204.5 185,204.5 188,207.5 192,217.5 193,226.5 199,232.5 197,235.5 197,238.5 194,239.5 185,245.5 181,251.5 168,261.5 167,263.5 168,266.5 173,264.5 190,272.5 187,275.5 192,283.5 197,286.5 198,289.5 203,289.5 207,291.5 211,289.5 217,289.5 221,281.5 223,282.5 223,289.5 226,289.5 238,282.5 241,283.5 244,282.5 250,273.5 247,268.5 244,260.5 253,260.5 254,252.5 246,245.5 248,244.5 262,246.5 266,250.5 266,247.5 265,246.5 267,245.5 267,242.5 265,242.5 264,243.5 258,232.5 261,224.5 255,215.5 255,212.5 254,209.5 252,212.5 247,201.5 243,198.5 247,192.5 255,190.5 " class="svg-polygon polygon st2" stroke="#708BB0" fill="#65BFFE"></polygon><polygon id="dois-vizinhos" points="101,254.5 92,251.5 92,254.5 86,255.5 93,260.5 97,272.5 96,274.5 99,287.5 106,288.5 107,285.5 110,280.5 112,272.5 116,280.5 127,270.5 137,269.5 134,260.5 134,259.5 128,255.5 124,257.5 116,253.5 115,254.5 112,254.5 111,251.5 110,252.5 110,257.5 104,257.5 " class="svg-polygon polygon st6" stroke="#708BB0" fill="#33E4FF"></polygon><polygon id="campo-mourao" points="194,106.5 182,96.5 180,96.5 161,113.5 155,107.5 149,122.5 145,121.5 140,129.5 151,145.5 149,150.5 146,150.5 143,158.5 141,165.5 141,169.5 139,169.5 136,167.5 131,169.5 130,173.5 127,177.5 125,182.5 129,188.5 133,186.5 134,187.5 134,191.5 139,192.5 139,194.5 149,198.5 155,196.5 156,192.5 156,186.5 177,176.5 181,177.5 182,175.5 186,177.5 189,176.5 188,174.5 197,164.5 195,157.5 194,156.5 198,150.5 199,145.5 197,141.5 200,136.5 202,135.5 200,129.5 201,124.5 200,121.5 201,118.5 195,109.5 " class="svg-polygon polygon st3" stroke="#708BB0" fill="#33CCFF"></polygon><polygon id="jacarezinho" points="380,83.5 380,82.5 382,74.5 379,71.5 376,59.5 371,53.5 370,50.5 363,47.5 357,46.5 357,44.5 360,42.5 354,31.5 337,38.5 327,36.5 324,41.5 323,48.5 327,47.5 334,57.5 315,65.5 314,68.5 318,82.5 320,90.5 322,91.5 326,90.5 329,93.5 335,91.5 337,89.5 335,88.5 339,83.5 336,79.5 337,77.5 343,75.5 348,78.5 351,84.5 348,89.5 355,91.5 363,88.5 375,86.5 380,84.5 " class="svg-polygon polygon st1" stroke="#708BB0" fill="#02A8FE"></polygon><polygon id="foz-do-iguacu" points="13,212.5 12,213.5 12,212.5 12,218.5 15,223.5 12,226.5 8,235.5 4,240.5 2,250.5 17,268.5 18,264.5 20,265.5 19,259.5 22,260.5 28,255.5 28,260.5 32,260.5 36,257.5 34,255.5 37,254.5 41,261.5 42,260.5 42,257.5 48,258.5 49,260.5 53,256.5 57,257.5 61,252.5 62,246.5 60,236.5 54,232.5 53,227.5 50,224.5 48,216.5 42,212.5 " class="svg-polygon polygon st2" stroke="#708BB0" fill="#65BFFE"></polygon><polygon id="umuarama" points="62,69.5 61,70.5 56,71.5 48,76.5 45,85.5 42,100.5 39,112.5 38,116.5 31,123.5 32,124.5 38,127.5 40,130.5 46,125.5 49,127.5 49,129.5 48,130.5 48,137.5 51,136.5 57,141.5 65,139.5 70,142.5 81,130.5 90,136.5 87,142.5 94,146.5 96,141.5 96,133.5 103,121.5 110,118.5 121,120.5 119,114.5 122,106.5 119,100.5 118,94.5 116,86.5 117,81.5 117,68.5 119,62.5 112,65.5 110,62.5 106,65.5 97,60.5 96,62.5 88,62.5 86,64.5 80,59.5 78,62.5 79,65.5 76,65.5 74,62.5 68,69.5 " class="svg-polygon polygon st4" stroke="#708BB0" fill="#99E6FF"></polygon><polygon id="paranavai" points="192,2.5 189,1.5 185,13.5 182,9.5 179,11.5 171,11.5 173,9.5 172,8.5 170,8.5 167,11.5 152,5.5 143,11.5 137,9.5 137,10.5 134,23.5 133,21.5 131,40.5 137,43.5 134,47.5 135,49.5 129,49.5 128,47.5 127,56.5 128,60.5 128,64.5 132,64.5 136,62.5 140,65.5 153,68.5 161,74.5 162,79.5 164,79.5 165,67.5 175,65.5 181,62.5 184,63.5 188,56.5 185,51.5 195,44.5 190,32.5 191,31.5 190,25.5 195,15.5 201,25.5 204,22.5 206,23.5 208,14.5 208,11.5 " class="svg-polygon polygon st3" stroke="#708BB0" fill="#33CCFF"></polygon><polygon id="paranagua" points="471,258.5 476,254.5 474,255.5 474,249.5 476,251.5 479,248.5 485,248.5 482,246.5 488,240.5 491,237.5 489,236.5 489,235.5 492,235.5 498,228.5 495,227.5 492,228.5 488,226.5 490,228.5 488,229.5 485,224.5 485,221.5 481,209.5 483,201.5 475,195.5 471,195.5 470,198.5 472,199.5 463,207.5 458,217.5 457,215.5 454,216.5 449,219.5 443,215.5 436,221.5 437,227.5 436,233.5 433,233.5 427,245.5 429,247.5 428,249.5 426,249.5 425,255.5 426,263.5 425,268.5 433,273.5 425,278.5 424,281.5 423,283.5 425,289.5 426,290.5 428,288.5 431,289.5 455,289.5 452,287.5 464,263.5 463,269.5 467,260.5 " class="svg-polygon polygon st3" stroke="#708BB0" fill="#33CCFF"></polygon><polygon id="area-metropolitana-sul" points="381,310.5 369,304.5 367,301.5 354,292.5 351,297.5 347,292.5 351,288.5 352,285.5 347,282.5 344,279.5 339,281.5 335,278.5 335,276.5 333,273.5 338,263.5 344,260.5 348,256.5 354,256.5 362,251.5 368,239.5 361,227.5 369,223.5 369,212.5 378.3,206.3 382,208.5 379,214.5 380,218.5 380,228.5 387,231.5 387,238.5 395,242.5 395,245.5 397,248.5 397,260.5 403,257.5 406,253.5 409,242.5 412,246.5 415,244.5 417,246.5 416,250.5 425,255.5 426,263.5 425,268.5 433,273.5 425,278.5 424,281.5 423,283.5 425,289.5 423,291.5 415,292.5 412,294.5 409,292.5 403,297.5 397,304.5 387,305.5 385,308.5 " class="svg-polygon polygon st0" stroke="#708BB0" fill="#68CFFE"></polygon><polygon id="area-metropolitana-norte" points="458,195.5 463,187.5 463,183.5 455,181.5 442,183.5 440,180.5 437,180.5 429,182.5 425,177.5 422,177.5 418,182.5 412,180.5 406,183.5 401,176.5 404,171.5 404,168.5 402,168.5 405,165.5 406,161.5 401,162.5 402,165.5 397,166.5 394,169.5 391,169.5 387,174.5 384,174.5 382,176.5 379,176.5 375,178.5 375,183.5 383,186.5 381,190.5 385,198.5 378.3,206.3 382,208.5 379,214.5 380,218.5 380,228.5 387,231.5 387,238.5 395,242.5 406,236.5 409,240.5 409,242.5 412,246.5 415,244.5 417,246.5 416,250.5 425,255.5 426,249.5 428,249.5 429,247.5 427,245.5 433,233.5 436,233.5 437,227.5 436,221.5 443,215.5 449,219.5 454,216.5 457,215.5 455,209.5 458,204.5 459,198.5 " class="svg-polygon polygon st4" stroke="#708BB0" fill="#99E6FF"></polygon></g><g id="ele_37" class="svg-g g"><text id="text1-maringa" transform="matrix(1 0 0 1 182.7449 73.5977)" font-family="'MyriadPro-Regular'" font-size="9" class="svg-text text">Maringá</text><text id="text1-uniao-da-vitoria" transform="matrix(1 0 0 1 227.0691 299.5664)" font-family="'MyriadPro-Regular'" font-size="9" class="svg-text text">União da Vitória</text><text id="text1-pato-branco" transform="matrix(1 0 0 1 152.0896 305.7285)" font-family="'MyriadPro-Regular'" font-size="9" class="svg-text text">Pato Branco</text><text id="text1-francisco-beltrao" transform="matrix(1 0 0 1 76.801 297.0068)" font-family="'MyriadPro-Regular'" font-size="9" class="svg-text text">Francisco</text><text id="text2-francisco-beltrao" transform="matrix(1 0 0 1 82.6511 309.5068)" font-family="'MyriadPro-Regular'" font-size="9" class="svg-text text">Beltrão</text><text id="text1-toledo" transform="matrix(1 0 0 1 28.1921 183.4785)" font-family="'MyriadPro-Regular'" font-size="9" class="svg-text text">Toledo</text><text id="text1-loanda" transform="matrix(1 0 0 1 85.0564 43.6133)" font-family="'MyriadPro-Regular'" font-size="9" class="svg-text text">Loanda</text><text id="text1-londrina" transform="matrix(1 0 0 1 228.5242 51.4326)" font-family="'MyriadPro-Regular'" font-size="9" class="svg-text text">Londrina</text><text id="text1-cornelio-procopio" transform="matrix(1 0 0 1 279.0862 64.4775)" font-family="'MyriadPro-Regular'" font-size="9" class="svg-text text">Cornélio</text><text id="text2-cornelio-procopio" transform="matrix(1 0 0 1 277.2854 76.9775)" font-family="'MyriadPro-Regular'" font-size="9" class="svg-text text">Procópio</text><text id="text1-wenceslau-braz" transform="matrix(1 0 0 1 344.2209 137.293)" font-family="'MyriadPro-Regular'" font-size="9" class="svg-text text">Wenceslau</text><text id="text2-wenceslau-braz" transform="matrix(1 0 0 1 359.0706 149.793)" font-family="'MyriadPro-Regular'" font-size="9" class="svg-text text">Braz</text><text id="text1-ibaiti" transform="matrix(1 0 0 1 326.6936 106.8848)" font-family="'MyriadPro-Regular'" font-size="9" class="svg-text text">Ibaiti</text><text id="text1-telemaco-borba" transform="matrix(1 0 0 1 275.9163 136.9736)" font-family="'MyriadPro-Regular'" font-size="9" class="svg-text text">Telêmaco</text><text id="text2-telemaco-borba" transform="matrix(1 0 0 1 284.4651 149.4736)" font-family="'MyriadPro-Regular'" font-size="9" class="svg-text text">Borba</text><text id="text1-irati" transform="matrix(1 0 0 1 274.8499 251.3965)" font-family="'MyriadPro-Regular'" font-size="9" class="svg-text text">Irati</text><text id="text1-cascavel" transform="matrix(1 0 0 1 78.2463 219.1611)" font-family="'MyriadPro-Regular'" font-size="9" class="svg-text text">Cascavel</text><text id="text1-assis-chateaubriand" transform="matrix(1 0 0 1 76.406 156.7568)" font-family="'MyriadPro-Regular'" font-size="9" class="svg-text text">Assis</text><text id="text2-assis-chateaubriand" transform="matrix(1 0 0 1 56.156 169.2568)" font-family="'MyriadPro-Regular'" font-size="9" class="svg-text text">Chateaubriand</text><text id="text1-cianorte" transform="matrix(1 0 0 1 127.1721 96.6533)" font-family="'MyriadPro-Regular'" font-size="9" class="svg-text text">Cianorte</text><text id="text1-goioere" transform="matrix(1 0 0 1 106.218 148.8945)" font-family="'MyriadPro-Regular'" font-size="9" class="svg-text text">Goioerê</text><text id="text1-laranjeiras-do-sul" transform="matrix(1 0 0 1 138.6453 234.5137)" font-family="'MyriadPro-Regular'" font-size="9" class="svg-text text">Laranjeiras</text><text id="text2-laranjeiras-do-sul" transform="matrix(1 0 0 1 148.0955 247.0137)" font-family="'MyriadPro-Regular'" font-size="9" class="svg-text text">do Sul</text><text id="text1-pitanga" transform="matrix(1 0 0 1 182.1228 191.4639)" font-family="'MyriadPro-Regular'" font-size="9" class="svg-text text">Pitanga</text><text id="text1-ivaipora" transform="matrix(1 0 0 1 214.7512 153.375)" font-family="'MyriadPro-Regular'" font-size="9" class="svg-text text">Ivaiporã</text><text id="text1-apucarana" transform="matrix(1 0 0 1 207.8909 108.167)" font-family="'MyriadPro-Regular'" font-size="9" class="svg-text text">Apucarana</text><text id="text1-curitiba" transform="matrix(1 0 0 1 386.3782 249.7158)" font-family="'MyriadPro-Regular'" font-size="9" class="svg-text text">Curitiba</text><text id="text1-ponta-grossa" transform="matrix(1 0 0 1 301.7932 203.2256)" font-family="'MyriadPro-Regular'" font-size="9" class="svg-text text">Ponta Grossa</text><text id="text1-guarapuava" transform="matrix(1 0 0 1 193.5383 248.0361)" font-family="'MyriadPro-Regular'" font-size="9" class="svg-text text">Guarapuava</text><text id="text1-dois-vizinhos" transform="matrix(1 0 0 1 100.5349 264.7598)" font-family="'MyriadPro-Regular'" font-size="9" class="svg-text text">Dois</text><text id="text2-dois-vizinhos" transform="matrix(1 0 0 1 92.4348 276.0098)" font-family="'MyriadPro-Regular'" font-size="9" class="svg-text text">Vizinhos</text><text id="text1-campo-mourao" transform="matrix(1 0 0 1 156.5081 147.2139)" font-family="'MyriadPro-Regular'" font-size="9" class="svg-text text">Campo</text><text id="text2-campo-mourao" transform="matrix(1 0 0 1 155.158 159.7139)" font-family="'MyriadPro-Regular'" font-size="9" class="svg-text text">Mourão</text><text id="text1-jacarezinho" transform="matrix(1 0 0 1 324.5481 68.5566)" font-family="'MyriadPro-Regular'" font-size="9" class="svg-text text">Jacarezinho</text><text id="text1-foz-do-iguacu" transform="matrix(1 0 0 1 15.9172 233.8154)" font-family="'MyriadPro-Regular'" font-size="9" class="svg-text text">Foz do</text><text id="text2-foz-do-iguacu" transform="matrix(1 0 0 1 15.467 246.3154)" font-family="'MyriadPro-Regular'" font-size="9" class="svg-text text">Iguaçu</text><text id="text1-umuarama" transform="matrix(1 0 0 1 55.2004 104.4316)" font-family="'MyriadPro-Regular'" font-size="9" class="svg-text text">Umuarama</text><text id="text1-paranavai" transform="matrix(1 0 0 1 140.3562 42.9053)" font-family="'MyriadPro-Regular'" font-size="9" class="svg-text text">Paranavaí</text><text id="text1-paranagua" transform="matrix(1 0 0 1 429.1389 250.8359)" font-family="'MyriadPro-Regular'" font-size="9" class="svg-text text">Paranaguá</text><text id="text1-area-metropolitana-sul" transform="matrix(1 0 0 1 373.1838 265.5605)" font-family="'MyriadPro-Regular'" font-size="9" class="svg-text text">Área</text><text id="text2-area-metropolitana-sul" transform="matrix(1 0 0 1 354.2834 278.0605)" font-family="'MyriadPro-Regular'" font-size="9" class="svg-text text">Metropolitana</text><text id="text3-area-metropolitana-sul" transform="matrix(1 0 0 1 376.3342 290.5605)" font-family="'MyriadPro-Regular'" font-size="9" class="svg-text text">Sul</text><text id="text1-area-metropolitana-norte" transform="matrix(1 0 0 1 403.1116 200.5078)" font-family="'MyriadPro-Regular'" font-size="9" class="svg-text text">Área</text><text id="text2-area-metropolitana-norte" transform="matrix(1 0 0 1 384.2112 213.0078)" font-family="'MyriadPro-Regular'" font-size="9" class="svg-text text">Metropolitana</text><text id="text3-area-metropolitana-norte" transform="matrix(1 0 0 1 401.3108 225.5078)" font-family="'MyriadPro-Regular'" font-size="9" class="svg-text text">Norte</text></g></svg>